<?xml version="1.0" standalone="no"?>
<!DOCTYPE svg PUBLIC "-//W3C//DTD SVG 20010904//EN"
 "http://www.w3.org/TR/2001/REC-SVG-20010904/DTD/svg10.dtd">
<svg version="1.0" xmlns="http://www.w3.org/2000/svg"
 width="512.000000pt" height="512.000000pt" viewBox="0 0 512.000000 512.000000"
 preserveAspectRatio="xMidYMid meet">
<metadata>
Created by potrace 1.14, written by Peter Selinger 2001-2017
</metadata>
<g transform="translate(0.000000,512.000000) scale(0.100000,-0.100000)"
fill="#000000" stroke="none">
<path d="M0 2829 l0 -2291 33 8 c17 4 53 7 78 5 25 -1 59 3 75 10 16 6 52 13
79 15 28 1 60 6 73 10 13 4 22 2 22 -5 0 -6 5 -11 11 -11 5 0 8 4 5 9 -8 12
32 18 69 11 17 -3 50 -3 75 1 38 6 50 3 77 -17 18 -13 36 -23 41 -22 5 2 51
-27 103 -63 183 -128 363 -207 504 -223 63 -7 199 -41 324 -82 40 -13 88 -24
106 -24 17 0 35 -3 39 -7 13 -14 81 -32 99 -27 9 3 17 1 17 -5 0 -23 85 -32
244 -28 97 3 201 -1 261 -8 187 -24 406 -27 625 -10 225 18 332 40 425 87 33
17 117 50 188 73 70 24 133 47 140 52 6 5 23 10 37 11 13 1 34 5 45 10 58 27
220 72 313 87 45 7 48 11 28 38 -19 25 -39 22 -30 -5 6 -20 5 -21 -10 -9 -12
10 -19 11 -30 2 -11 -9 -15 -6 -20 14 -7 26 -31 34 -39 12 -2 -6 0 -22 4 -34
5 -15 5 -23 -2 -23 -15 0 -159 152 -153 162 8 12 34 10 34 -3 0 -11 40 -48 53
-49 4 0 7 5 7 10 0 6 -7 10 -16 10 -11 0 -15 6 -11 20 7 25 -19 39 -53 30 -16
-4 -31 -2 -43 8 -22 19 -32 10 -17 -17 6 -12 8 -21 5 -21 -14 0 -52 25 -82 53
-18 17 -33 26 -33 21 0 -6 5 -15 11 -21 8 -8 7 -17 -3 -32 -16 -26 -32 -27
-25 -2 3 12 -4 28 -19 42 -34 32 -32 53 5 46 15 -3 33 -1 38 4 6 6 45 11 86
12 55 1 78 5 82 15 4 11 9 11 19 3 14 -12 112 1 153 21 11 6 26 8 31 4 5 -3
15 1 21 8 7 8 8 16 4 19 -11 6 -99 1 -111 -7 -14 -9 -43 4 -36 16 4 6 -1 8
-12 4 -14 -4 -24 3 -38 27 -43 71 -47 80 -36 91 7 7 10 5 10 -5 0 -16 47 -66
54 -58 3 2 -6 24 -18 49 -17 34 -28 44 -44 43 -13 -2 -23 5 -27 17 -4 11 -20
35 -36 53 -32 34 -63 86 -56 93 7 7 67 -27 67 -38 0 -18 70 -98 86 -98 20 0
18 6 -21 46 -20 20 -35 44 -33 53 2 9 25 26 51 39 45 22 50 22 73 7 13 -8 24
-20 24 -25 0 -20 21 -9 30 15 5 14 18 28 27 32 10 4 21 11 25 17 5 8 13 7 27
-1 15 -9 26 -9 50 0 32 12 41 32 19 40 -7 2 -10 8 -5 12 4 5 13 3 19 -3 25
-25 63 -13 111 35 26 26 47 50 47 54 0 4 -16 21 -35 38 -19 17 -35 33 -35 36
0 10 75 -1 100 -15 45 -24 105 -95 138 -162 37 -75 37 -80 16 -161 -11 -41
-12 -62 -5 -67 6 -3 22 -21 36 -40 27 -36 32 -81 16 -138 -13 -44 2 -40 19 5
11 33 14 35 21 18 6 -17 8 -15 8 10 1 22 4 26 10 16 7 -11 10 -7 14 15 4 27 5
28 12 7 8 -26 35 -31 35 -8 0 9 10 15 23 16 20 1 20 2 2 6 -38 9 -39 23 -1 21
26 -1 35 -5 32 -15 -3 -7 1 -13 9 -13 8 0 15 -7 15 -16 0 -12 6 -15 23 -10 12
3 25 6 29 6 4 0 8 12 10 27 l4 28 12 -27 c8 -20 16 -25 32 -21 12 3 55 0 96
-6 41 -7 88 -10 104 -6 l30 7 0 2164 0 2164 -2560 0 -2560 0 0 -2291z m4465
2185 c26 -10 131 -231 187 -394 59 -172 126 -431 169 -648 51 -264 55 -235
-69 -432 -141 -223 -206 -329 -224 -362 -22 -40 -55 -74 -64 -65 -4 4 2 17 13
30 11 12 35 49 53 82 19 33 67 112 108 175 118 181 192 307 192 324 0 21 -50
76 -145 159 -122 106 -131 120 -139 224 -3 49 -15 162 -27 253 -11 91 -30 271
-42 400 -21 221 -23 235 -43 238 -11 2 -85 -28 -165 -66 -159 -77 -219 -103
-219 -97 0 3 28 18 63 34 34 16 118 57 187 90 129 63 137 65 165 55z m-25
-104 c0 -10 -4 -22 -10 -25 -6 -4 -10 7 -10 25 0 18 4 29 10 25 6 -3 10 -15
10 -25z m0 -77 c0 -43 -5 -41 -13 5 -4 18 -2 32 3 32 6 0 10 -16 10 -37z
m-405 -13 c-3 -5 -11 -10 -16 -10 -6 0 -7 5 -4 10 3 6 11 10 16 10 6 0 7 -4 4
-10z m-76 -34 c-11 -10 -233 -117 -224 -108 14 16 197 110 214 111 8 1 12 -1
10 -3z m495 -210 l5 -151 -14 150 c-7 83 -13 166 -13 185 l0 35 8 -34 c5 -19
11 -103 14 -185z m-734 90 c0 -3 -87 -50 -192 -105 -106 -55 -216 -115 -243
-133 -101 -66 -161 -153 -245 -353 -23 -55 -46 -104 -50 -110 -4 -5 -11 -24
-14 -42 -5 -23 -15 -34 -37 -42 -23 -8 -29 -16 -29 -40 0 -32 -11 -41 -128
-101 -78 -40 -71 -53 38 -74 93 -18 166 -45 230 -86 59 -38 89 -76 120 -153
20 -50 22 -69 17 -145 -7 -110 -33 -223 -61 -265 -38 -56 -66 -61 -401 -61
l-300 -1 -20 43 c-24 53 -36 54 -22 3 16 -58 -4 -187 -39 -258 -16 -33 -57
-88 -95 -127 -61 -62 -70 -68 -96 -61 -15 4 -108 10 -205 14 l-177 6 -31 30
c-17 16 -45 58 -61 92 l-31 61 21 83 c12 46 21 86 21 91 0 4 -93 8 -208 8
-217 0 -233 3 -269 48 -31 38 -2 238 42 297 13 17 38 59 56 95 64 129 254 275
382 294 51 8 53 11 35 52 -11 23 -10 28 11 45 36 29 65 24 98 -17 25 -32 36
-37 82 -42 30 -3 69 1 91 8 33 11 45 10 89 -6 49 -17 51 -17 72 2 15 13 37 19
73 20 139 3 134 2 148 32 8 15 12 34 10 41 -7 20 -52 33 -68 20 -20 -16 -19
27 1 74 8 20 15 38 15 41 0 8 -63 26 -89 26 -33 0 -51 17 -51 47 0 16 -6 23
-18 23 -11 0 -26 8 -35 18 -16 17 -15 21 14 61 17 23 29 44 26 47 -3 3 -26 6
-51 6 -40 1 -44 3 -36 19 15 27 65 59 93 59 36 0 40 31 9 76 l-25 38 37 -22
c45 -26 38 -26 66 -2 31 27 45 25 69 -9 25 -34 27 -76 6 -85 -8 -3 -15 -12
-15 -21 0 -19 16 -20 24 0 10 27 44 16 80 -27 20 -23 36 -52 36 -65 0 -31 15
-29 35 5 24 39 64 67 77 54 6 -6 13 -34 16 -61 5 -60 14 -63 74 -22 24 16 58
32 77 35 32 6 33 5 26 -22 -15 -61 -17 -90 -5 -97 6 -4 17 -2 23 4 6 6 17 11
25 11 12 0 13 -11 8 -59 l-7 -58 40 -10 c21 -6 43 -8 49 -4 5 3 28 53 51 111
105 269 198 376 433 499 246 129 308 159 308 147z m-2164 -142 c18 -14 18 -14
-6 -3 -31 14 -36 19 -24 19 6 0 19 -7 30 -16z m178 -100 c84 -56 147 -146 197
-279 22 -60 19 -111 -5 -102 -8 3 -33 -10 -56 -30 -41 -36 -42 -36 -38 -97 l3
-61 -65 -12 c-93 -17 -103 -17 -95 7 3 10 1 66 -6 122 -17 145 -12 272 12 326
13 27 19 59 17 85 -3 38 -8 45 -53 75 -27 19 -52 39 -54 45 -4 11 63 -26 143
-79z m2756 -205 c22 -183 25 -249 10 -249 -5 0 -10 10 -10 23 0 12 -7 99 -15
192 -24 282 -18 297 15 34z m-2306 80 c-3 -5 -10 -7 -15 -3 -5 3 -7 10 -3 15
3 5 10 7 15 3 5 -3 7 -10 3 -15z m-157 -194 c-18 -30 -36 -53 -42 -52 -5 2
-11 22 -13 45 -3 38 -1 42 20 42 13 0 30 5 38 10 29 19 29 9 -3 -45z m-1797
-215 c-17 -52 -25 -44 -9 9 7 23 14 39 17 36 3 -3 -1 -23 -8 -45z m3531 -487
c55 -38 116 -98 160 -159 19 -25 46 -60 62 -79 15 -18 27 -37 27 -41 0 -5 15
-32 33 -59 45 -68 64 -116 82 -207 20 -104 20 -157 -2 -165 -9 -4 -93 -1 -187
6 -94 6 -260 16 -369 21 -109 6 -207 15 -219 21 -20 11 -20 11 0 25 17 12 31
70 33 144 1 60 25 199 46 270 33 112 41 137 42 125 2 -18 21 19 21 41 0 21 52
79 62 69 3 -3 20 2 39 10 51 23 117 14 170 -22z m-2741 -33 c-23 -27 -44 -50
-47 -50 -3 0 14 23 37 50 23 28 44 50 47 50 3 0 -14 -22 -37 -50z m-67 -91
c-10 -17 -24 -36 -32 -42 -12 -10 -12 -8 -1 13 13 26 40 60 47 60 2 0 -4 -14
-14 -31z m-63 -99 c-6 -11 -13 -20 -16 -20 -2 0 0 9 6 20 6 11 13 20 16 20 2
0 0 -9 -6 -20z m-82 -148 c-29 -55 -54 -97 -56 -92 -5 14 96 205 104 197 3 -2
-19 -50 -48 -105z m3527 29 c-44 -21 -98 -53 -119 -70 -32 -26 -41 -29 -48
-17 -10 19 0 46 18 46 8 0 14 4 14 9 0 4 10 6 23 4 12 -2 38 6 57 19 32 21 99
46 125 46 6 0 -26 -17 -70 -37z m-3219 -1 c19 -27 42 -114 42 -160 -1 -35 -7
-52 -29 -78 -32 -36 -35 -47 -17 -58 8 -5 6 -10 -8 -15 -10 -5 90 -8 224 -7
133 1 245 -2 249 -5 3 -4 -51 -7 -120 -7 -70 0 -216 -5 -325 -11 -109 -6 -209
-9 -224 -7 l-26 3 20 75 c22 87 69 176 127 242 41 47 67 55 87 28z m3468 0
c19 -7 26 -17 26 -35 l0 -26 -117 7 c-65 3 -120 9 -123 11 -3 3 8 16 23 29 24
20 39 24 97 24 38 0 80 -4 94 -10z m-4065 -89 c20 -13 0 -20 -57 -19 -57 0
-64 4 -29 18 29 11 68 12 86 1z m4148 -13 c29 -23 70 -130 107 -278 46 -181
55 -289 32 -362 -27 -86 -19 -83 -143 -69 -59 7 -117 18 -129 26 -36 23 -55
81 -85 254 -15 91 -40 223 -55 292 -30 144 -28 182 5 94 31 -82 67 -235 92
-392 24 -148 42 -187 94 -209 36 -15 180 -20 188 -6 3 4 -27 8 -67 9 -86 1
-140 21 -159 60 -15 29 -31 100 -42 188 -3 28 -26 128 -51 223 -24 96 -44 179
-44 184 0 16 236 4 257 -14z m-4200 -77 c6 -4 -37 -96 -47 -99 -8 -3 -10 2 -5
17 4 12 2 21 -4 21 -12 0 -15 29 -5 54 4 11 48 17 61 7z m54 -92 c-99 -476
-90 -450 -176 -496 -33 -17 -64 -28 -69 -23 -14 14 2 27 47 38 71 18 91 54
127 227 34 161 82 356 87 352 2 -3 -5 -47 -16 -98z m3171 -213 c166 -21 203
-53 279 -243 48 -120 79 -181 119 -233 39 -50 51 -114 57 -287 l6 -152 -27
-11 c-35 -13 -32 -14 -55 11 -12 13 -26 19 -36 15 -9 -3 -18 0 -21 9 -7 17
-34 20 -34 4 0 -6 -6 -7 -12 -2 -7 4 -25 6 -40 4 -20 -2 -28 2 -28 13 0 12 -5
13 -22 7 -24 -9 -24 -8 -68 -101 -34 -70 -92 -137 -153 -177 -56 -36 -56 -21
0 20 26 19 60 48 75 64 35 36 84 138 103 211 38 144 1 437 -75 600 -36 76
-122 170 -202 218 -32 20 -58 37 -58 40 0 8 85 3 192 -10z m-104 -83 c45 -21
99 -86 134 -161 56 -123 83 -358 53 -457 -7 -22 -13 -34 -14 -27 -1 7 -6 10
-13 6 -8 -5 -9 -2 -3 12 4 10 10 57 12 104 6 99 -10 171 -62 285 -46 102 -86
157 -150 207 -30 23 -55 47 -55 51 0 11 55 -1 98 -20z m-3198 -17 c0 -23 -27
-45 -57 -46 -25 0 -30 19 -13 51 15 27 70 23 70 -5z m3168 -89 c60 -36 107
-94 142 -177 42 -98 39 -323 -5 -306 -8 3 -17 1 -20 -4 -4 -6 -13 -6 -23 -1
-9 5 -30 15 -45 22 -50 23 -144 117 -167 166 -30 63 -29 116 5 201 31 79 40
84 94 51 77 -47 18 15 -75 79 -41 28 41 1 94 -31z m-2672 -7 c-14 -17 -26 -29
-26 -25 0 12 42 66 47 61 3 -3 -6 -19 -21 -36z m-616 -11 c0 -11 -4 -17 -10
-14 -5 3 -10 15 -10 26 0 11 5 17 10 14 6 -3 10 -15 10 -26z m658 -112 c2 -97
0 -116 -17 -144 -11 -18 -32 -35 -46 -39 -14 -3 -25 -11 -25 -16 0 -6 -6 -8
-14 -5 -9 4 -16 -3 -20 -16 -11 -43 -14 -10 -6 63 11 94 42 177 87 230 19 22
35 40 36 40 1 0 3 -51 5 -113z m1763 -91 c-11 -27 -24 -37 -16 -11 3 8 7 22
10 31 3 9 8 15 11 12 2 -3 0 -17 -5 -32z m1594 -131 c39 4 76 2 83 -3 14 -9
34 -267 25 -318 -8 -42 -29 -62 -75 -69 -39 -7 -106 -40 -119 -58 -9 -13 -16
23 -28 138 -23 215 -31 326 -26 335 3 5 20 0 38 -10 27 -17 43 -19 102 -15z
m-2717 -27 c-5 -32 -28 -35 -28 -4 0 17 5 26 16 26 10 0 14 -7 12 -22z m1092
12 c0 -5 -17 -10 -37 -10 -28 0 -34 3 -23 10 20 13 60 13 60 0z m-970 -60 c0
-5 -5 -10 -11 -10 -5 0 -7 5 -4 10 3 6 8 10 11 10 2 0 4 -4 4 -10z m899 -40
c54 0 42 17 148 -210 23 -47 56 -103 76 -125 41 -48 213 -165 342 -234 25 -13
30 -19 15 -15 -44 11 -104 40 -213 103 -138 80 -153 81 -92 6 22 -27 33 -48
29 -59 -7 -19 -54 -22 -72 -4 -8 8 -12 8 -12 1 0 -6 7 -13 15 -17 8 -3 15 -14
15 -25 0 -11 5 -23 10 -26 6 -3 10 -13 10 -22 0 -20 -40 -11 -85 20 -39 27
-117 124 -85 107 11 -6 21 -9 21 -8 1 2 3 15 5 30 3 32 -21 50 -55 41 -18 -4
-21 -11 -17 -29 4 -16 2 -24 -7 -24 -7 0 -24 -11 -37 -25 -22 -23 -23 -29 -12
-57 6 -17 9 -35 6 -40 -8 -13 -88 -52 -101 -50 -7 2 -13 -3 -13 -10 0 -9 -22
-13 -83 -14 l-82 -2 78 23 c93 27 119 45 64 45 -39 0 -82 22 -105 52 -7 10
-17 16 -22 13 -4 -3 -10 1 -13 9 -3 7 -18 16 -34 19 -21 4 -29 12 -30 29 -1
12 3 25 8 29 6 3 12 36 14 73 4 68 -4 81 -35 54 -8 -7 0 3 18 22 38 42 45 76
8 41 -22 -21 -116 -39 -116 -22 0 3 23 26 50 50 51 44 61 61 36 61 -7 0 -16 8
-18 18 -6 21 13 52 31 52 6 0 11 5 11 11 0 27 134 129 170 129 19 0 30 5 30
14 0 10 12 7 47 -10 25 -13 63 -24 82 -24z m-1033 -19 c-4 -5 0 -11 6 -14 7
-2 1 -8 -14 -12 -30 -8 -36 -20 -15 -28 9 -3 7 -9 -5 -24 -10 -11 -18 -23 -18
-27 0 -5 -12 -22 -26 -39 -14 -17 -23 -38 -21 -48 3 -11 -2 -19 -14 -22 -23
-6 -23 -5 -3 41 46 108 88 180 107 181 5 1 6 -3 3 -8z m194 -164 c0 -7 20 -32
45 -54 26 -23 45 -49 45 -61 0 -18 -3 -20 -32 -11 -18 5 -40 18 -50 29 -9 11
-18 20 -21 20 -3 0 -4 -21 -3 -47 0 -29 -5 -54 -13 -62 -11 -13 -11 -16 5 -22
11 -3 21 -3 24 1 3 4 11 2 18 -6 10 -11 10 -14 0 -14 -7 0 1 -7 18 -16 25 -12
31 -21 30 -47 -1 -18 -9 -43 -18 -56 -9 -13 -14 -30 -11 -37 3 -8 -1 -14 -11
-14 -9 0 -16 -6 -16 -13 0 -19 -40 -38 -70 -34 -38 5 -69 28 -102 77 -28 41
-30 50 -25 105 2 34 9 70 15 81 6 10 21 40 33 66 23 49 61 91 101 113 31 17
38 18 38 2z m97 -3 c23 -9 44 -23 47 -30 4 -11 1 -12 -14 -4 -27 14 -34 12
-20 -5 22 -27 -8 -18 -56 17 -24 17 -44 33 -44 35 0 9 49 1 87 -13z m363 -20
c0 -7 -64 -63 -72 -64 -5 0 -8 6 -8 14 0 10 -8 13 -27 10 -19 -3 -24 -1 -14 5
11 7 11 10 0 17 -10 6 -2 11 26 14 65 8 95 10 95 4z m1340 -344 c-19 -11 -39
-19 -45 -19 -5 0 6 8 25 19 19 11 40 19 45 19 6 0 -6 -8 -25 -19z m465 -280
c-3 -5 -11 -10 -16 -10 -6 0 -7 5 -4 10 3 6 11 10 16 10 6 0 7 -4 4 -10z
m-165 -20 c0 -5 -5 -10 -11 -10 -5 0 -7 5 -4 10 3 6 8 10 11 10 2 0 4 -4 4
-10z m-106 -69 c10 -9 26 -32 36 -52 10 -19 26 -41 34 -48 9 -7 13 -17 10 -22
-10 -16 -24 -9 -24 11 0 11 -3 20 -7 20 -5 0 -30 22 -58 50 -27 27 -56 49 -62
50 -7 0 -13 4 -13 10 0 14 62 0 84 -19z m-113 -14 c9 -7 19 -23 24 -36 7 -21
4 -21 -29 9 -20 18 -36 35 -36 37 0 7 26 1 41 -10z m-66 -18 c4 -11 4 -23 1
-26 -8 -9 -36 17 -36 33 0 22 28 16 35 -7z m-69 -3 c21 -16 16 -30 -9 -20 -16
6 -32 34 -19 34 5 0 17 -6 28 -14z m-226 -28 c0 -13 -23 -5 -28 10 -2 7 2 10
12 6 9 -3 16 -11 16 -16z m139 13 c20 -5 21 -8 10 -18 -11 -9 -20 -7 -39 7
-26 20 -16 24 29 11z m-74 -11 c3 -5 2 -10 -4 -10 -5 0 -13 5 -16 10 -3 6 -2
10 4 10 5 0 13 -4 16 -10z m288 -314 c16 -12 24 -46 11 -46 -18 0 -44 24 -44
40 0 23 8 25 33 6z m-42 -27 c17 -32 -3 -43 -34 -19 -34 27 -34 40 -2 40 14 0
29 -8 36 -21z m-157 -5 c9 -3 16 -13 16 -20 0 -12 -4 -12 -20 -4 -11 6 -20 15
-20 20 0 12 3 12 24 4z m82 -6 c3 -4 3 -11 0 -17 -7 -11 -46 7 -46 21 0 9 36
5 46 -4z m-131 -8 c3 -5 1 -10 -4 -10 -6 0 -11 5 -11 10 0 6 2 10 4 10 3 0 8
-4 11 -10z m503 -102 c15 -15 16 -28 2 -28 -5 0 -10 7 -10 16 0 11 -6 14 -20
9 -11 -4 -20 -2 -20 4 0 15 33 14 48 -1z m39 -74 c-9 -9 -28 6 -21 18 4 6 10
6 17 -1 6 -6 8 -13 4 -17z"/>
<path d="M2807 3866 c-5 -12 0 -16 21 -15 15 0 36 4 47 9 l20 9 -20 0 c-11 1
-30 4 -41 7 -14 4 -23 0 -27 -10z"/>
<path d="M2562 3777 c-43 -44 -42 -67 2 -67 31 0 34 3 40 35 4 19 3 42 -1 50
-7 12 -15 9 -41 -18z"/>
<path d="M1866 3041 c-56 -4 -81 -10 -86 -21 -76 -155 -92 -249 -53 -325 44
-84 51 -87 235 -90 90 -1 175 -5 189 -9 35 -10 82 31 146 127 47 70 48 74 46
142 -2 38 -5 96 -9 128 l-6 57 -191 -2 c-106 -1 -228 -4 -271 -7z m204 -47
c98 -58 106 -212 13 -251 -51 -21 -132 -20 -166 1 -38 25 -53 86 -33 128 9 17
16 38 16 47 1 17 42 61 75 79 29 16 63 15 95 -4z"/>
<path d="M4477 2870 c3 -30 10 -64 15 -75 6 -13 7 -3 3 30 -7 74 0 80 96 78
110 -2 90 11 -26 17 l-93 5 5 -55z"/>
<path d="M4675 2875 c4 -11 12 -35 17 -53 5 -19 12 -32 15 -29 7 7 -16 79 -30
92 -7 7 -8 4 -2 -10z"/>
<path d="M4710 2774 c0 -5 12 -52 26 -104 16 -61 27 -136 31 -207 3 -62 10
-113 14 -113 16 0 9 132 -10 220 -31 137 -62 242 -61 204z"/>
<path d="M4542 2590 c0 -8 4 -26 8 -40 6 -20 8 -21 8 -5 0 11 -3 29 -8 40 -5
12 -8 14 -8 5z"/>
<path d="M4598 2533 c7 -3 16 -2 19 1 4 3 -2 6 -13 5 -11 0 -14 -3 -6 -6z"/>
<path d="M4645 2520 c11 -5 27 -9 35 -9 9 0 8 4 -5 9 -11 5 -27 9 -35 9 -9 0
-8 -4 5 -9z"/>
<path d="M4570 2450 c0 -24 49 -58 99 -69 65 -14 81 -14 81 0 0 7 -10 9 -25 5
-25 -6 -36 8 -12 17 6 2 -10 8 -38 12 -27 4 -62 16 -77 27 -16 11 -28 14 -28
8z"/>
<path d="M2770 1536 c0 -3 9 -10 20 -16 11 -6 20 -8 20 -6 0 3 -9 10 -20 16
-11 6 -20 8 -20 6z"/>
<path d="M3930 1037 c0 -17 21 -57 30 -57 17 0 11 26 -10 45 -11 10 -20 15
-20 12z"/>
<path d="M4000 960 c0 -5 5 -10 11 -10 5 0 7 5 4 10 -3 6 -8 10 -11 10 -2 0
-4 -4 -4 -10z"/>
<path d="M3942 913 c-10 -4 -10 -8 -1 -19 15 -18 29 -18 29 0 0 18 -11 25 -28
19z"/>
<path d="M3950 859 c0 -5 5 -7 10 -4 6 3 10 8 10 11 0 2 -4 4 -10 4 -5 0 -10
-5 -10 -11z"/>
<path d="M4720 789 c0 -5 5 -7 10 -4 6 3 10 8 10 11 0 2 -4 4 -10 4 -5 0 -10
-5 -10 -11z"/>
<path d="M4180 750 c0 -5 5 -10 10 -10 6 0 10 5 10 10 0 6 -4 10 -10 10 -5 0
-10 -4 -10 -10z"/>
<path d="M4120 736 c0 -9 7 -16 16 -16 17 0 14 22 -4 28 -7 2 -12 -3 -12 -12z"/>
<path d="M4286 475 c-3 -9 -10 -14 -15 -11 -5 3 -12 -1 -15 -9 -4 -12 0 -14
22 -9 37 9 46 19 29 33 -12 9 -16 8 -21 -4z"/>
<path d="M4194 440 c0 -11 6 -20 13 -20 15 0 15 2 7 24 -9 22 -20 20 -20 -4z"/>
<path d="M1 183 l-1 -183 178 1 c161 1 172 2 127 13 -149 36 -265 157 -294
308 -6 31 -9 -9 -10 -139z"/>
<path d="M5106 312 c-9 -60 -62 -156 -110 -200 -52 -48 -113 -81 -181 -98 -46
-11 -35 -12 128 -13 l177 -1 0 175 c0 96 -2 175 -4 175 -2 0 -6 -17 -10 -38z"/>
</g>
</svg>
